<svg width="16" height="17" viewBox="0 0 16 17" fill="none" xmlns="http://www.w3.org/2000/svg">
<path d="M13.75 2.25C13.6906 2.25 13.6297 2.26094 13.5688 2.28594L4.5625 5.90469H2C1.8625 5.90469 1.75 6.02031 1.75 6.16406V10.8359C1.75 10.9797 1.8625 11.0953 2 11.0953H3.5875C3.52969 11.2766 3.5 11.4688 3.5 11.6641C3.5 12.6938 4.34063 13.5312 5.375 13.5312C6.24062 13.5312 6.97031 12.9437 7.18594 12.15L13.5703 14.7156C13.6313 14.7391 13.6922 14.7516 13.7516 14.7516C14.0156 14.7516 14.2516 14.5297 14.2516 14.2328V2.76875C14.25 2.47187 14.0156 2.25 13.75 2.25ZM5.375 12.4109C4.96094 12.4109 4.625 12.0766 4.625 11.6641C4.625 11.4891 4.68594 11.3219 4.79688 11.1891L6.12344 11.7219C6.09219 12.1062 5.76875 12.4109 5.375 12.4109Z" fill="#575757"/>
</svg>
