<svg width="16" height="17" viewBox="0 0 16 17" fill="none" xmlns="http://www.w3.org/2000/svg">
<g clip-path="url(#clip0_1284_2465)">
<path fill-rule="evenodd" clip-rule="evenodd" d="M4.00004 5.16634C4.00004 4.28229 4.35123 3.43444 4.97635 2.80932C5.60147 2.1842 6.44932 1.83301 7.33337 1.83301C8.21743 1.83301 9.06528 2.1842 9.6904 2.80932C10.3155 3.43444 10.6667 4.28229 10.6667 5.16634C10.6667 6.0504 10.3155 6.89824 9.6904 7.52336C9.06528 8.14849 8.21743 8.49967 7.33337 8.49967C6.44932 8.49967 5.60147 8.14849 4.97635 7.52336C4.35123 6.89824 4.00004 6.0504 4.00004 5.16634ZM7.33337 3.16634C7.07073 3.16634 6.81066 3.21807 6.56801 3.31858C6.32536 3.41909 6.10488 3.56641 5.91916 3.75213C5.73344 3.93784 5.58612 4.15832 5.48561 4.40097C5.38511 4.64363 5.33337 4.9037 5.33337 5.16634C5.33337 5.42899 5.38511 5.68906 5.48561 5.93171C5.58612 6.17436 5.73344 6.39484 5.91916 6.58055C6.10488 6.76627 6.32536 6.91359 6.56801 7.0141C6.81066 7.11461 7.07073 7.16634 7.33337 7.16634C7.86381 7.16634 8.37252 6.95563 8.74759 6.58055C9.12266 6.20548 9.33337 5.69677 9.33337 5.16634C9.33337 4.63591 9.12266 4.1272 8.74759 3.75213C8.37252 3.37705 7.86381 3.16634 7.33337 3.16634ZM2.94204 12.2337C2.72671 12.507 2.66671 12.7137 2.66671 12.833C2.66671 12.9117 2.69004 12.9877 2.80337 13.089C2.93471 13.2063 3.17004 13.3357 3.54337 13.451C4.29004 13.6817 5.38071 13.7983 6.68071 13.8263C6.76826 13.8282 6.85458 13.8472 6.93476 13.8824C7.01494 13.9176 7.08741 13.9683 7.14801 14.0315C7.20862 14.0947 7.25618 14.1692 7.28798 14.2508C7.31979 14.3324 7.33521 14.4195 7.33337 14.507C7.33154 14.5946 7.31247 14.6809 7.27727 14.7611C7.24207 14.8412 7.19142 14.9137 7.12821 14.9743C7.06501 15.0349 6.99048 15.0825 6.9089 15.1143C6.82731 15.1461 6.74026 15.1615 6.65271 15.1597C5.32137 15.131 4.07937 15.0123 3.15004 14.725C2.68604 14.581 2.24737 14.3803 1.91537 14.0837C1.56471 13.7703 1.33337 13.349 1.33337 12.833C1.33337 12.3083 1.57204 11.8177 1.89604 11.407C2.22537 10.9903 2.68071 10.607 3.21471 10.2803C4.28337 9.62901 5.73671 9.16634 7.33337 9.16634C7.63137 9.16634 7.92471 9.18234 8.21071 9.21301C8.38655 9.23166 8.54777 9.3194 8.65892 9.45693C8.77007 9.59446 8.82203 9.7705 8.80337 9.94634C8.78472 10.1222 8.69698 10.2834 8.55945 10.3946C8.42193 10.5057 8.24588 10.5577 8.07004 10.539C7.83004 10.513 7.58337 10.4997 7.33337 10.4997C5.98471 10.4997 4.77137 10.893 3.90937 11.419C3.47804 11.6817 3.15204 11.967 2.94204 12.2337ZM14.142 9.85567C13.9873 9.70086 13.8035 9.57806 13.6013 9.49427C13.399 9.41049 13.1823 9.36736 12.9634 9.36736C12.7445 9.36736 12.5277 9.41049 12.3255 9.49427C12.1232 9.57806 11.9395 9.70086 11.7847 9.85567L9.50604 12.1337C9.35305 12.2868 9.25386 12.4854 9.22337 12.6997L9.00337 14.2383C8.98865 14.341 8.99804 14.4456 9.0308 14.5439C9.06355 14.6423 9.11877 14.7317 9.19207 14.805C9.26537 14.8783 9.35474 14.9335 9.4531 14.9663C9.55146 14.999 9.65609 15.0084 9.75871 14.9937L11.2974 14.7737C11.5117 14.7432 11.7103 14.644 11.8634 14.491L14.1414 12.2123C14.4538 11.8998 14.6294 11.4759 14.6294 11.034C14.6294 10.5921 14.4545 10.1682 14.142 9.85567ZM12.7274 10.7983C12.7902 10.7376 12.8744 10.704 12.9618 10.7048C13.0492 10.7055 13.1328 10.7406 13.1946 10.8024C13.2565 10.8642 13.2915 10.9478 13.2923 11.0352C13.293 11.1226 13.2594 11.2068 13.1987 11.2697L10.9987 13.4697L10.4487 13.5483L10.5274 12.9983L12.7274 10.7983Z" fill="#575757"/>
</g>
<defs>
<clipPath id="clip0_1284_2465">
<rect width="16" height="16" fill="white" transform="translate(0 0.5)"/>
</clipPath>
</defs>
</svg>
