<svg width="16" height="17" viewBox="0 0 16 17" fill="none" xmlns="http://www.w3.org/2000/svg">
<path d="M8 3.33366C8.14445 3.33366 8.26378 3.28633 8.358 3.19166C8.45222 3.09699 8.49956 2.97766 8.5 2.83366C8.5 2.68921 8.45267 2.56988 8.358 2.47566C8.26333 2.38144 8.144 2.3341 8 2.33366C7.85556 2.33366 7.73622 2.38099 7.642 2.47566C7.54778 2.57033 7.50045 2.68966 7.5 2.83366C7.5 2.9781 7.54734 3.09744 7.642 3.19166C7.73667 3.28588 7.856 3.33321 8 3.33366ZM12 15.8337C11.0778 15.8337 10.2916 15.5085 9.64133 14.8583C8.99111 14.2081 8.66622 13.4221 8.66667 12.5003C8.66667 11.5781 8.99178 10.7919 9.642 10.1417C10.2922 9.49144 11.0782 9.16655 12 9.16699C12.9222 9.16699 13.7084 9.4921 14.3587 10.1423C15.0089 10.7925 15.3338 11.5785 15.3333 12.5003C15.3333 13.4225 15.0082 14.2088 14.358 14.859C13.7078 15.5092 12.9218 15.8341 12 15.8337ZM11.6667 14.5003H12.3333V12.8337H14V12.167H12.3333V10.5003H11.6667V12.167H10V12.8337H11.6667V14.5003ZM4.66667 6.50033H11.3333V5.16699H4.66667V6.50033ZM7.78333 14.5003H3.33333C2.96667 14.5003 2.65267 14.3697 2.39133 14.1083C2.13 13.847 1.99956 13.5332 2 13.167V3.83366C2 3.46699 2.13067 3.15299 2.392 2.89166C2.65333 2.63033 2.96711 2.49988 3.33333 2.50033H6.13333C6.27778 2.10033 6.51956 1.7781 6.85867 1.53366C7.19778 1.28921 7.57822 1.16699 8 1.16699C8.42222 1.16699 8.80289 1.28921 9.142 1.53366C9.48111 1.7781 9.72267 2.10033 9.86667 2.50033H12.6667C13.0333 2.50033 13.3473 2.63099 13.6087 2.89233C13.87 3.15366 14.0004 3.46744 14 3.83366V8.30033C13.6778 8.14477 13.3527 8.0281 13.0247 7.95033C12.6967 7.87255 12.3551 7.83366 12 7.83366C11.8778 7.83366 11.7638 7.83633 11.658 7.84166C11.5522 7.84699 11.444 7.86099 11.3333 7.88366V7.83366H4.66667V9.16699H8.75C8.55 9.35588 8.36934 9.56144 8.208 9.78366C8.04667 10.0059 7.90511 10.2448 7.78333 10.5003H4.66667V11.8337H7.38333C7.36111 11.9448 7.34711 12.0532 7.34133 12.159C7.33556 12.2648 7.33289 12.3785 7.33333 12.5003C7.33333 12.867 7.36667 13.2088 7.43333 13.5257C7.5 13.8425 7.61667 14.1674 7.78333 14.5003Z" fill="#575757"/>
</svg>
