<svg width="95" height="94" viewBox="0 0 95 94" fill="none" xmlns="http://www.w3.org/2000/svg">
<rect width="95" height="94" rx="10" fill="white"/>
<path d="M48 32C46.0661 32 44.2115 32.7682 42.844 34.1357C41.4766 35.5031 40.7083 37.3578 40.7083 39.2917C40.7083 41.2255 41.4766 43.0802 42.844 44.4477C44.2115 45.8151 46.0661 46.5833 48 46.5833C49.9339 46.5833 51.7885 45.8151 53.156 44.4477C54.5234 43.0802 55.2917 41.2255 55.2917 39.2917C55.2917 37.3578 54.5234 35.5031 53.156 34.1357C51.7885 32.7682 49.9339 32 48 32ZM48 36.1667C48.8288 36.1667 49.6237 36.4959 50.2097 37.082C50.7958 37.668 51.125 38.4629 51.125 39.2917C51.125 40.1205 50.7958 40.9153 50.2097 41.5014C49.6237 42.0874 48.8288 42.4167 48 42.4167C47.1712 42.4167 46.3763 42.0874 45.7903 41.5014C45.2042 40.9153 44.875 40.1205 44.875 39.2917C44.875 38.4629 45.2042 37.668 45.7903 37.082C46.3763 36.4959 47.1712 36.1667 48 36.1667ZM34.4583 38.25C33.077 38.25 31.7522 38.7987 30.7755 39.7755C29.7987 40.7522 29.25 42.077 29.25 43.4583C29.25 45.4167 30.3542 47.1042 31.9375 48C32.6875 48.4167 33.5417 48.6667 34.4583 48.6667C35.375 48.6667 36.2292 48.4167 36.9792 48C37.75 47.5625 38.3958 46.9375 38.875 46.1875C37.3573 44.2095 36.5368 41.7848 36.5417 39.2917V38.7083C35.9167 38.4167 35.2083 38.25 34.4583 38.25ZM61.5417 38.25C60.7917 38.25 60.0833 38.4167 59.4583 38.7083V39.2917C59.4583 41.7917 58.6458 44.2083 57.125 46.1875C57.375 46.5833 57.6458 46.8958 57.9583 47.2083C58.9191 48.1398 60.2035 48.6625 61.5417 48.6667C62.4583 48.6667 63.3125 48.4167 64.0625 48C65.6458 47.1042 66.75 45.4167 66.75 43.4583C66.75 42.077 66.2013 40.7522 65.2245 39.7755C64.2478 38.7987 62.923 38.25 61.5417 38.25ZM48 50.75C43.125 50.75 33.4167 53.1875 33.4167 58.0417V61.1667H62.5833V58.0417C62.5833 53.1875 52.875 50.75 48 50.75ZM32.8125 51.8958C28.7917 52.375 23 54.4167 23 58.0417V61.1667H29.25V57.1458C29.25 55.0417 30.6875 53.2917 32.8125 51.8958ZM63.1875 51.8958C65.3125 53.2917 66.75 55.0417 66.75 57.1458V61.1667H73V58.0417C73 54.4167 67.2083 52.375 63.1875 51.8958ZM48 54.9167C51.1875 54.9167 54.75 55.9583 56.8125 57H39.1875C41.25 55.9583 44.8125 54.9167 48 54.9167Z" fill="#00FFFF"/>
</svg>
