<svg width="16" height="17" viewBox="0 0 16 17" fill="none" xmlns="http://www.w3.org/2000/svg">
<g clip-path="url(#clip0_1284_2439)">
<path d="M4.26667 7.5H7.46667V16.5H4.26667V7.5ZM5.33333 15.5H6.4V8.5H5.33333V15.5ZM8.53333 9.5H11.7333V16.5H8.53333V9.5ZM9.6 15.5H10.6667V10.5H9.6V15.5ZM0 11.5H3.2V16.5H0V11.5ZM1.06667 15.5H2.13333V12.5H1.06667V15.5ZM12.8 5.5H16V16.5H12.8V5.5ZM13.8667 15.5H14.9333V6.5H13.8667V15.5ZM11.575 5.35156C11.6806 5.5651 11.7333 5.78125 11.7333 6C11.7333 6.20833 11.6917 6.40365 11.6083 6.58594C11.525 6.76823 11.4111 6.92708 11.2667 7.0625C11.1222 7.19792 10.9528 7.30469 10.7583 7.38281C10.5639 7.46094 10.3556 7.5 10.1333 7.5C9.91111 7.5 9.70278 7.46094 9.50833 7.38281C9.31389 7.30469 9.14444 7.19792 9 7.0625C8.85556 6.92708 8.74167 6.76823 8.65833 6.58594C8.575 6.40365 8.53333 6.20833 8.53333 6V5.90625C8.53333 5.875 8.53611 5.84375 8.54167 5.8125L6.975 5.07812C6.83056 5.21354 6.66111 5.31771 6.46667 5.39062C6.27222 5.46354 6.07222 5.5 5.86667 5.5C5.63333 5.5 5.40278 5.45052 5.175 5.35156L3.04167 7.35156C3.14722 7.5651 3.2 7.78125 3.2 8C3.2 8.20833 3.15833 8.40365 3.075 8.58594C2.99167 8.76823 2.87778 8.92708 2.73333 9.0625C2.58889 9.19792 2.41944 9.30469 2.225 9.38281C2.03056 9.46094 1.82222 9.5 1.6 9.5C1.37778 9.5 1.16944 9.46094 0.975 9.38281C0.780556 9.30469 0.611111 9.19792 0.466667 9.0625C0.322222 8.92708 0.208333 8.76823 0.125 8.58594C0.0416667 8.40365 0 8.20833 0 8C0 7.79167 0.0416667 7.59635 0.125 7.41406C0.208333 7.23177 0.322222 7.07292 0.466667 6.9375C0.611111 6.80208 0.780556 6.69531 0.975 6.61719C1.16944 6.53906 1.37778 6.5 1.6 6.5C1.83333 6.5 2.06389 6.54948 2.29167 6.64844L4.425 4.64844C4.31944 4.4349 4.26667 4.21875 4.26667 4C4.26667 3.79167 4.30833 3.59635 4.39167 3.41406C4.475 3.23177 4.58889 3.07292 4.73333 2.9375C4.87778 2.80208 5.04722 2.69531 5.24167 2.61719C5.43611 2.53906 5.64444 2.5 5.86667 2.5C6.08889 2.5 6.29722 2.53906 6.49167 2.61719C6.68611 2.69531 6.85556 2.80208 7 2.9375C7.14444 3.07292 7.25833 3.23177 7.34167 3.41406C7.425 3.59635 7.46667 3.79167 7.46667 4V4.09375C7.46667 4.125 7.46389 4.15625 7.45833 4.1875L9.025 4.92188C9.16945 4.78646 9.33889 4.68229 9.53333 4.60938C9.72778 4.53646 9.92778 4.5 10.1333 4.5C10.3667 4.5 10.5972 4.54948 10.825 4.64844L12.9583 2.64844C12.8528 2.4349 12.8 2.21875 12.8 2C12.8 1.79167 12.8417 1.59635 12.925 1.41406C13.0083 1.23177 13.1222 1.07292 13.2667 0.9375C13.4111 0.802083 13.5806 0.695312 13.775 0.617188C13.9694 0.539062 14.1778 0.5 14.4 0.5C14.6222 0.5 14.8306 0.539062 15.025 0.617188C15.2194 0.695312 15.3889 0.802083 15.5333 0.9375C15.6778 1.07292 15.7917 1.23177 15.875 1.41406C15.9583 1.59635 16 1.79167 16 2C16 2.20833 15.9583 2.40365 15.875 2.58594C15.7917 2.76823 15.6778 2.92708 15.5333 3.0625C15.3889 3.19792 15.2194 3.30469 15.025 3.38281C14.8306 3.46094 14.6222 3.5 14.4 3.5C14.1667 3.5 13.9361 3.45052 13.7083 3.35156L11.575 5.35156ZM1.6 8.5C1.74444 8.5 1.86944 8.45052 1.975 8.35156C2.08056 8.2526 2.13333 8.13542 2.13333 8C2.13333 7.86458 2.08056 7.7474 1.975 7.64844C1.86944 7.54948 1.74444 7.5 1.6 7.5C1.45556 7.5 1.33056 7.54948 1.225 7.64844C1.11944 7.7474 1.06667 7.86458 1.06667 8C1.06667 8.13542 1.11944 8.2526 1.225 8.35156C1.33056 8.45052 1.45556 8.5 1.6 8.5ZM14.4 1.5C14.2556 1.5 14.1306 1.54948 14.025 1.64844C13.9194 1.7474 13.8667 1.86458 13.8667 2C13.8667 2.13542 13.9194 2.2526 14.025 2.35156C14.1306 2.45052 14.2556 2.5 14.4 2.5C14.5444 2.5 14.6694 2.45052 14.775 2.35156C14.8806 2.2526 14.9333 2.13542 14.9333 2C14.9333 1.86458 14.8806 1.7474 14.775 1.64844C14.6694 1.54948 14.5444 1.5 14.4 1.5ZM5.86667 4.5C6.01111 4.5 6.13611 4.45052 6.24167 4.35156C6.34722 4.2526 6.4 4.13542 6.4 4C6.4 3.86458 6.34722 3.7474 6.24167 3.64844C6.13611 3.54948 6.01111 3.5 5.86667 3.5C5.72222 3.5 5.59722 3.54948 5.49167 3.64844C5.38611 3.7474 5.33333 3.86458 5.33333 4C5.33333 4.13542 5.38611 4.2526 5.49167 4.35156C5.59722 4.45052 5.72222 4.5 5.86667 4.5ZM10.1333 6.5C10.2778 6.5 10.4028 6.45052 10.5083 6.35156C10.6139 6.2526 10.6667 6.13542 10.6667 6C10.6667 5.86458 10.6139 5.7474 10.5083 5.64844C10.4028 5.54948 10.2778 5.5 10.1333 5.5C9.98889 5.5 9.86389 5.54948 9.75833 5.64844C9.65278 5.7474 9.6 5.86458 9.6 6C9.6 6.13542 9.65278 6.2526 9.75833 6.35156C9.86389 6.45052 9.98889 6.5 10.1333 6.5Z" fill="#575757"/>
</g>
<defs>
<clipPath id="clip0_1284_2439">
<rect width="16" height="16" fill="white" transform="translate(0 0.5)"/>
</clipPath>
</defs>
</svg>
