<svg width="16" height="17" viewBox="0 0 16 17" fill="none" xmlns="http://www.w3.org/2000/svg">
<path d="M13.1333 9.09967L9.33329 12.8997H7.79996V11.3663L11.6 7.56634L13.1333 9.09967ZM15.4 8.56634C15.4 8.76634 15.2 8.96634 15 9.16634L13.3333 10.833L12.7333 10.233L14.4666 8.49967L14.0666 8.09967L13.6 8.56634L12.0666 7.03301L13.5333 5.63301C13.6666 5.49967 13.9333 5.49967 14.1333 5.63301L15.0666 6.56634C15.2 6.69968 15.2 6.96634 15.0666 7.16634C14.9333 7.29967 14.8 7.43301 14.8 7.56634C14.8 7.69968 14.9333 7.83301 15.0666 7.96634C15.2666 8.16634 15.4666 8.36634 15.4 8.56634ZM1.99996 13.833V3.16634H6.66663V6.49967H9.99996V7.49967L11.3333 6.16634V5.83301L7.33329 1.83301H1.99996C1.26663 1.83301 0.666626 2.43301 0.666626 3.16634V13.833C0.666626 14.5663 1.26663 15.1663 1.99996 15.1663H9.99996C10.7333 15.1663 11.3333 14.5663 11.3333 13.833H1.99996ZM7.33329 11.8997C7.19996 11.8997 7.06663 11.9663 6.99996 11.9663L6.66663 10.4997H5.66663L4.26663 11.633L4.66663 9.83301H3.66663L2.99996 13.1663H3.99996L5.93329 11.433L6.33329 12.9663H6.99996L7.33329 12.8997V11.8997Z" fill="#575757"/>
</svg>
