<svg width="16" height="17" viewBox="0 0 16 17" fill="none" xmlns="http://www.w3.org/2000/svg">
<path fill-rule="evenodd" clip-rule="evenodd" d="M0 0.5H13.778V2.72204H12.8891V1.38882H0.888904V11.6102H10.3944V12.499H0V0.5ZM13.3336 6.27731C13.6872 6.27731 14.0263 6.13685 14.2764 5.88682C14.5264 5.63679 14.6669 5.29768 14.6669 4.94409C14.6669 4.59049 14.5264 4.25138 14.2764 4.00135C14.0263 3.75133 13.6872 3.61086 13.3336 3.61086C12.9799 3.61086 12.6408 3.75133 12.3907 4.00135C12.1407 4.25138 12.0002 4.59049 12.0002 4.94409C12.0002 5.29768 12.1407 5.63679 12.3907 5.88682C12.6408 6.13685 12.9799 6.27731 13.3336 6.27731ZM14.2362 7.17058C14.8136 7.17058 15.2705 7.43011 15.5696 7.83097C15.8491 8.20649 15.9674 8.6709 15.994 9.09975C16.0202 9.53967 15.9602 9.98045 15.8176 10.3974C15.6843 10.7841 15.4589 11.184 15.1114 11.4582V15.8321C15.1117 15.9996 15.0489 16.1611 14.9356 16.2844C14.8223 16.4077 14.6667 16.4839 14.4998 16.4977C14.3328 16.5116 14.1668 16.4621 14.0347 16.3591C13.9026 16.2561 13.8142 16.1071 13.7869 15.9419L13.2136 12.499H13.0811L12.4331 15.9548C12.4023 16.1179 12.3118 16.2636 12.1793 16.3635C12.0467 16.4634 11.8816 16.5103 11.7164 16.4949C11.5511 16.4796 11.3975 16.4032 11.2856 16.2806C11.1737 16.158 11.1115 15.9981 11.1113 15.8321V9.49172C11.0224 9.6271 10.9347 9.76324 10.8482 9.90013L10.8135 9.9548L10.8046 9.96902L10.8024 9.97302C10.7425 10.0692 10.6591 10.1485 10.56 10.2035C10.4609 10.2585 10.3495 10.2873 10.2362 10.2872H8.01391C7.8371 10.2872 7.66752 10.217 7.5425 10.092C7.41747 9.96695 7.34723 9.7974 7.34723 9.6206C7.34723 9.4438 7.41747 9.27425 7.5425 9.14923C7.66752 9.02422 7.8371 8.95399 8.01391 8.95399H9.87039C9.97839 8.78689 10.1206 8.57002 10.2699 8.35226C10.4255 8.12517 10.5971 7.88474 10.75 7.69631C10.8242 7.60432 10.9073 7.50833 10.9908 7.42967C11.0317 7.391 11.0886 7.34078 11.158 7.29634C11.2803 7.21603 11.4232 7.17254 11.5695 7.17102L14.2362 7.17058Z" fill="#575757"/>
</svg>
