<svg width="16" height="17" viewBox="0 0 16 17" fill="none" xmlns="http://www.w3.org/2000/svg">
<path d="M8.00004 7.70039C8.63656 7.70039 9.24701 7.44753 9.6971 6.99745C10.1472 6.54736 10.4 5.93691 10.4 5.30039C10.4 4.66387 10.1472 4.05342 9.6971 3.60333C9.24701 3.15325 8.63656 2.90039 8.00004 2.90039C7.36352 2.90039 6.75307 3.15325 6.30298 3.60333C5.8529 4.05342 5.60004 4.66387 5.60004 5.30039C5.60004 5.93691 5.8529 6.54736 6.30298 6.99745C6.75307 7.44753 7.36352 7.70039 8.00004 7.70039ZM4.80004 6.90039C4.80004 7.32474 4.63147 7.7317 4.33141 8.03176C4.03135 8.33182 3.62439 8.50039 3.20004 8.50039C2.77569 8.50039 2.36873 8.33182 2.06867 8.03176C1.76861 7.7317 1.60004 7.32474 1.60004 6.90039C1.60004 6.47604 1.76861 6.06908 2.06867 5.76902C2.36873 5.46896 2.77569 5.30039 3.20004 5.30039C3.62439 5.30039 4.03135 5.46896 4.33141 5.76902C4.63147 6.06908 4.80004 6.47604 4.80004 6.90039ZM1.19204 12.7612C1.05547 12.6836 0.953197 12.5573 0.905641 12.4076C0.764685 11.9511 0.763207 11.4628 0.901396 11.0055C1.03958 10.5481 1.31115 10.1423 1.68131 9.84023C2.05148 9.53812 2.5034 9.35337 2.97919 9.30964C3.45499 9.26592 3.93301 9.3652 4.35204 9.59479C3.49094 10.441 2.95199 11.5611 2.82804 12.762C2.80964 12.9396 2.81684 13.1156 2.84804 13.2852C2.26417 13.2347 1.69868 13.0558 1.19204 12.7612ZM13.152 13.2844C13.7358 13.2341 14.3013 13.0555 14.808 12.7612C14.9443 12.6834 15.0463 12.5572 15.0936 12.4076C15.2348 11.951 15.2365 11.4627 15.0984 11.0051C14.9603 10.5476 14.6887 10.1417 14.3185 9.83948C13.9483 9.53724 13.4963 9.35241 13.0204 9.30868C12.5445 9.26494 12.0663 9.36429 11.6472 9.59399C12.5091 10.4402 13.0486 11.5606 13.1728 12.762C13.1907 12.9365 13.1837 13.1126 13.152 13.2852V13.2844ZM14.4 6.90039C14.4 7.32474 14.2315 7.7317 13.9314 8.03176C13.6314 8.33182 13.2244 8.50039 12.8 8.50039C12.3757 8.50039 11.9687 8.33182 11.6687 8.03176C11.3686 7.7317 11.2 7.32474 11.2 6.90039C11.2 6.47604 11.3686 6.06908 11.6687 5.76902C11.9687 5.46896 12.3757 5.30039 12.8 5.30039C13.2244 5.30039 13.6314 5.46896 13.9314 5.76902C14.2315 6.06908 14.4 6.47604 14.4 6.90039ZM4.24324 13.4524C4.16434 13.3817 4.10317 13.2935 4.06468 13.1948C4.02618 13.0962 4.01144 12.9898 4.02164 12.8844C4.1234 11.9 4.58647 10.9882 5.32137 10.3254C6.05626 9.66255 7.01078 9.29567 8.00044 9.29567C8.9901 9.29567 9.94462 9.66255 10.6795 10.3254C11.4144 10.9882 11.8775 11.9 11.9792 12.8844C11.9895 12.9898 11.9748 13.0962 11.9363 13.1949C11.8978 13.2935 11.8366 13.3818 11.7576 13.4524C10.729 14.3859 9.38915 14.9023 8.00004 14.9004C6.6112 14.9021 5.27163 14.3858 4.24324 13.4524Z" fill="#575757"/>
</svg>
